<svg xmlns="http://www.w3.org/2000/svg" viewBox="0 0 30 30"><path fill="none" stroke="#000" stroke-linecap="round" stroke-linejoin="round" stroke-width="2" d="M15 3A6 5 0 1 0 15 13A6 5 0 1 0 15 3Z"/><path d="M15 8A1 1 0 1 0 15 10A1 1 0 1 0 15 8Z"/><path d="M8 8c0 3.505 1.167 6.103 1.167 6.103S11.188 17 15 17s5.833-2.897 5.833-2.897S22 11.529 22 8c0 0-1.254 4.8-7 4.8S8 8 8 8zM22 26H8v-1.133c0-.498.366-.92.859-.99L15 23l6.141.877C21.634 23.948 22 24.37 22 24.867V26z"/><path d="M15 21A2 2 0 1 0 15 25A2 2 0 1 0 15 21Z"/><path d="M25 8c-.552 0-1 .448-1 1v3.917c0 2.933-2.12 5.436-5.014 5.918L18 19h-3v3h2.754c.164 0 .326-.02.485-.06l1.701-.425c3.561-.89 6.06-4.09 6.06-7.761V9C26 8.448 25.552 8 25 8zM5 8c.552 0 1 .448 1 1v3.917c0 2.933 2.12 5.436 5.014 5.918L12 19h3v3h-2.754c-.164 0-.326-.02-.485-.06l-1.701-.425C6.498 20.625 4 17.425 4 13.754V9C4 8.448 4.448 8 5 8z"/></svg>