<svg xmlns="http://www.w3.org/2000/svg" viewBox="0 0 32 32"><polygon fill="none" stroke="#000" stroke-width="2" points="18,4 18,5 23,10 28,5 28,4"/><polygon points="24,13.5 22,15 22,9 24,9"/><path d="M8,21v-2.963l-0.737-0.201c-0.004-0.001-1.069-0.291-1.713-0.466c-0.009-0.025-0.023-0.162,0.043-0.321l2.699-5.403l0.086-0.252C8.426,11.159,9.517,6.191,15,5.189V3.162c-6.554,0.989-8.292,6.68-8.548,7.693L3.78,16.207c-0.307,0.714-0.315,1.46-0.023,2.048c0.253,0.51,0.716,0.871,1.228,0.995C5.267,19.344,5.659,19.46,6,19.558V21c0,2.57,2.43,5,5,5v3h2v-5h-2C9.542,24,8,22.458,8,21z"/><path d="M25.655,11.587C25.871,12.357,26,13.162,26,14c0,1.718-0.706,3.235-1.453,4.842C23.787,20.477,23,22.167,23,24.102V29h2v-4.898c0-1.493,0.661-2.913,1.36-4.417C27.167,17.953,28,16.161,28,14c0-1.41-0.279-2.752-0.767-3.991L25.655,11.587z"/></svg>