<svg xmlns="http://www.w3.org/2000/svg" viewBox="0 0 64 64"><path d="M50.29,46h-6.425c-0.203,0-0.402-0.062-0.569-0.178c-0.536-0.37-13.188-9.274-19.647-27.146 c-0.131-0.363-0.042-0.771,0.231-1.045C24.311,17.196,34.721,7,58,7c0.552,0,1,0.447,1,1v5.079c0,0.513-0.388,0.942-0.898,0.995 c-12.027,1.231-19.315,7.072-20.913,8.478c0.228,1.86,1.886,9.963,13.803,21.737c0.289,0.284,0.376,0.716,0.222,1.091 C51.061,45.755,50.695,46,50.29,46z M44.189,44h3.709C35.305,30.882,35.154,22.509,35.154,22.145c0-0.268,0.107-0.523,0.297-0.711 c0.318-0.314,7.8-7.567,21.549-9.248V9.007c-19.081,0.255-29.051,7.753-31.239,9.619C31.573,34.135,42.426,42.687,44.189,44z M33.285,46H23.004c-0.195,0-0.387-0.058-0.55-0.165c-0.32-0.211-7.899-5.238-13.078-11.634c-0.215-0.266-0.279-0.623-0.17-0.947 s0.376-0.57,0.708-0.652l10.281-2.539c0.424-0.104,0.868,0.078,1.094,0.451c0.038,0.063,3.897,6.317,12.643,13.724 c0.32,0.271,0.437,0.713,0.292,1.106C34.08,45.738,33.705,46,33.285,46z M23.311,44h7.309 c-6.199-5.579-9.543-10.194-10.637-11.825l-8.024,1.981C16.35,39.133,22.068,43.151,23.311,44z"/><path d="M51,35.962c-0.309,0-0.607-0.144-0.8-0.4c-3.679-4.904-4.919-9.753-4.97-9.957c-0.076-0.303-0.005-0.623,0.189-0.867 c5.042-6.303,11.316-6.375,11.581-6.375c0.552,0,1,0.447,1,1v4.8c0,0.431-0.275,0.813-0.684,0.948 c-2.644,0.882-4.604,2.46-5.316,3.09v6.762c0,0.431-0.275,0.813-0.684,0.948C51.212,35.945,51.105,35.962,51,35.962z M47.307,25.592c0.299,0.977,1.116,3.352,2.693,6.053v-3.882c0-0.266,0.105-0.52,0.293-0.707c0.098-0.099,2.311-2.286,5.707-3.597 V20.46C54.258,20.729,50.565,21.748,47.307,25.592z"/><path d="M58,50H11.3c-0.254,0-0.499-0.097-0.684-0.271L5.33,44.771c-0.403-0.378-0.423-1.011-0.045-1.413 c0.378-0.403,1.011-0.423,1.414-0.046L11.696,48H58c0.552,0,1,0.447,1,1S58.552,50,58,50z"/><path d="M7,56c0.553,0,1-0.448,1-1v-2c0-0.552-0.447-1-1-1s-1,0.448-1,1v2C6,55.552,6.447,56,7,56z"/><path d="M12,56c0.553,0,1-0.448,1-1v-2c0-0.552-0.447-1-1-1s-1,0.448-1,1v2C11,55.552,11.447,56,12,56z"/><path d="M17,56c0.553,0,1-0.448,1-1v-2c0-0.552-0.447-1-1-1s-1,0.448-1,1v2C16,55.552,16.447,56,17,56z"/><path d="M22,56c0.553,0,1-0.448,1-1v-2c0-0.552-0.447-1-1-1s-1,0.448-1,1v2C21,55.552,21.447,56,22,56z"/><path d="M27,56c0.553,0,1-0.448,1-1v-2c0-0.552-0.447-1-1-1s-1,0.448-1,1v2C26,55.552,26.447,56,27,56z"/><path d="M32,56c0.553,0,1-0.448,1-1v-2c0-0.552-0.447-1-1-1s-1,0.448-1,1v2C31,55.552,31.447,56,32,56z"/><path d="M37,56c0.553,0,1-0.448,1-1v-2c0-0.552-0.447-1-1-1s-1,0.448-1,1v2C36,55.552,36.447,56,37,56z"/><path d="M42,56c0.553,0,1-0.448,1-1v-2c0-0.552-0.447-1-1-1s-1,0.448-1,1v2C41,55.552,41.447,56,42,56z"/><path d="M47,56c0.553,0,1-0.448,1-1v-2c0-0.552-0.447-1-1-1s-1,0.448-1,1v2C46,55.552,46.447,56,47,56z"/><path d="M52,56c0.553,0,1-0.448,1-1v-2c0-0.552-0.447-1-1-1s-1,0.448-1,1v2C51,55.552,51.447,56,52,56z"/><path d="M57,56c0.553,0,1-0.448,1-1v-2c0-0.552-0.447-1-1-1s-1,0.448-1,1v2C56,55.552,56.447,56,57,56z"/></svg>