<svg id="Layer_3" data-name="Layer 3" xmlns="http://www.w3.org/2000/svg" viewBox="0 0 1600 1400"><defs><style>.cls-1{fill:#88c0c2;}.cls-2{fill:#de9244;}.cls-3{fill:#fff;}.cls-4{fill:#262424;}.cls-5{fill:#fbfeff;}</style></defs><title>Online Courses</title><path class="cls-1" d="M749.37,1277.76H599.6a205.5,205.5,0,0,1-31.68-15.69c-14.57-9.06-28-21.11-24.82-33.57,2.58-10.07,12.5-9.76,22.33-6.6,10.87,3.52,21.62,10.54,22.15,10.88-0.38-.39-8.08-8.35-18.63-20.88-28.26-33.56-77-100-60.35-141.9,10.67-26.9,50.5-14.7,96.06,20.3,19.16,14.71,39.32,33.45,58.76,55C697.42,1183,729.17,1229.32,749.37,1277.76Z"/><path class="cls-2" d="M663.42,1145.31c-0.17,19.88-7.27,40.19-30.47,52.57-34.48,18.39-32,57-26.82,79.88H599.6a205.5,205.5,0,0,1-31.68-15.69c-3.67-11.44-6.06-25.83-2.49-40.17,10.87,3.52,21.62,10.54,22.15,10.88-0.38-.39-8.08-8.35-18.63-20.88,3.85-8.26,10.09-16.25,19.65-23.4,34.59-25.86,25-72.47,16.06-98.2C623.82,1105,644,1123.75,663.42,1145.31Z"/><path class="cls-2" d="M652,1213.6c-33.08,23.68-24.1,77.6,8.73,44.38S683,1191.37,652,1213.6Z"/><path class="cls-3" d="M711.91,1277.76h-7.48c-6.78-7.51-18.06-20-31.51-35-7.45-8.32-15.56-17.4-23.94-26.8-5.27-5.92-10.65-12-16-18-9.07-10.25-18.15-20.55-26.76-30.39-39.25-44.9-68.6-80.21-42.26-56.52,13.7,12.32,29.69,28.76,46.08,46.65,10.39,11.33,21,23.24,31.18,35,5.25,6,10.4,12.06,15.41,18,7.19,8.47,14.08,16.69,20.47,24.38C692.45,1253.53,704.95,1269,711.91,1277.76Z"/><path class="cls-1" d="M862.08,1245.23a401.53,401.53,0,0,1-30.42,29.88c-2,1.71-3.06,2.65-3.06,2.65H749.37c7.93-26,21.68-49.45,37.76-68.64a200.93,200.93,0,0,1,22.52-23c33.65-29.11,70.16-39.65,84.45-19.6S884.84,1220.22,862.08,1245.23Z"/><path class="cls-2" d="M862.08,1245.23a401.53,401.53,0,0,1-30.42,29.88c1.95-12.59-2.11-26.32-21.59-36.53-14.72-7.72-21.11-18.4-22.94-29.46a200.93,200.93,0,0,1,22.52-23c-2.77,12.21-.51,24.31,16.9,28C848.46,1218.77,858,1233.41,862.08,1245.23Z"/><path class="cls-3" d="M791.47,1277.76H780.11c15.79-21.36,62.63-83.46,83.49-97.15C876.29,1172.28,811.64,1252.81,791.47,1277.76Z"/><path class="cls-3" d="M426.52,215.75l31,146c1.61,7.59-3.24,13.75-10.83,13.75H271.24c-7.59,0-15.06-6.16-16.67-13.75l-31-146c-1.61-7.59,3.24-13.75,10.83-13.75h175.5C417.44,202,424.91,208.16,426.52,215.75Z"/><path class="cls-4" d="M446.74,378.27H271.24c-9,0-17.49-7-19.39-15.95l-31-146a14.22,14.22,0,0,1,2.61-12.15,13.72,13.72,0,0,1,10.94-5h175.5c9,0,17.49,7,19.39,15.95h0l31,146a14.22,14.22,0,0,1-2.61,12.15A13.72,13.72,0,0,1,446.74,378.27ZM234.35,204.77a8.28,8.28,0,0,0-6.62,2.89,8.78,8.78,0,0,0-1.49,7.5l31,146c1.33,6.26,7.72,11.55,14,11.55h175.5a8.28,8.28,0,0,0,6.62-2.89,8.78,8.78,0,0,0,1.49-7.5l-31-146c-1.33-6.26-7.72-11.55-14-11.55H234.35Z"/><path class="cls-2" d="M426.52,215.75l2.92,13.75h-203l-2.92-13.75c-1.61-7.59,3.24-13.75,10.83-13.75h175.5C417.44,202,424.91,208.16,426.52,215.75Z"/><path class="cls-2" d="M429.45,232.27h-203a2.78,2.78,0,0,1-2.72-2.2l-2.92-13.75a14.22,14.22,0,0,1,2.61-12.15,13.72,13.72,0,0,1,10.94-5h175.5c9,0,17.49,7,19.39,15.95h0l2.92,13.75A2.78,2.78,0,0,1,429.45,232.27Zm-200.75-5.55H426l-2.21-10.4c-1.33-6.26-7.72-11.55-14-11.55H234.35a8.28,8.28,0,0,0-6.62,2.89,8.78,8.78,0,0,0-1.49,7.5Z"/><path class="cls-1" d="M409.15,360.77l2.55,12H305.12l-2.55-12c-2.41-11.32,2.43-21.47,12.16-25.5l32.82-13.6,38.6,13.6C397.58,339.3,406.74,349.45,409.15,360.77Z"/><path class="cls-4" d="M327.21,375.52a2.78,2.78,0,0,1-2.71-2.2L321.88,361a2.78,2.78,0,0,1,5.43-1.16l2.62,12.3a2.78,2.78,0,0,1-2.14,3.29A2.82,2.82,0,0,1,327.21,375.52Z"/><path class="cls-3" d="M368.51,335.19c2.63,12.35-11.1,13.3-11.1,13.3s-2.08-10.65-6.42-10.65-1.89,10.65-1.89,10.65-14.13-.95-16.76-13.3c-2-9.63,3-14.69,3-14.69h23.91A25.7,25.7,0,0,1,368.51,335.19Z"/><path class="cls-4" d="M357.4,351.27a2.78,2.78,0,0,1-2.72-2.24c-0.73-3.71-2.31-7.21-3.35-8.17a19.89,19.89,0,0,0,.47,7,2.78,2.78,0,0,1-2.89,3.39c-5.61-.38-16.87-4.1-19.29-15.49-2.33-11,3.51-17,3.76-17.23a2.78,2.78,0,0,1,2-.81h23.91a2.78,2.78,0,0,1,1.6.5,28.43,28.43,0,0,1,10.37,16.38h0c0.91,4.28.26,7.93-1.94,10.84-3.93,5.21-11.37,5.78-11.69,5.8H357.4ZM351,335.07c4.85,0,7.37,6.15,8.51,10.23a9.85,9.85,0,0,0,5.37-3.2c1.19-1.59,1.49-3.66.93-6.33a23.05,23.05,0,0,0-7.5-12.49H336.68c-1,1.56-2.9,5.36-1.63,11.33,1.42,6.66,6.94,9.35,10.68,10.42-0.26-2.78-.14-6.15,1.44-8.14A4.78,4.78,0,0,1,351,335.07Z"/><path class="cls-3" d="M358.47,328s-0.36,5-8.51,5-10.65-5-10.65-5l-0.42-9.36h16Z"/><path class="cls-4" d="M350,335.79c-9.76,0-13-6.29-13.13-6.56a2.77,2.77,0,0,1-.29-1.11l-0.42-9.36a2.78,2.78,0,0,1,2.77-2.9h16a2.78,2.78,0,0,1,2.59,1.79l3.56,9.35a2.77,2.77,0,0,1,.17,1.19C361,330.82,358.45,335.79,350,335.79ZM342,327.12c0.7,0.9,2.92,3.11,7.91,3.11,4,0,5.22-1.35,5.6-2.1L353,321.42h-11.2Z"/><path class="cls-4" d="M389.6,375.52a2.78,2.78,0,0,1-2.71-2.2L384.27,361a2.78,2.78,0,0,1,5.43-1.16l2.62,12.3a2.78,2.78,0,0,1-2.14,3.29A2.82,2.82,0,0,1,389.6,375.52Z"/><path class="cls-3" d="M316.52,301.53h-1.39a7,7,0,0,1-6.52-5.37l-1.2-5.62a4.22,4.22,0,0,1,4.23-5.37H313a7,7,0,0,1,6.52,5.37l1.2,5.62A4.22,4.22,0,0,1,316.52,301.53Z"/><path class="cls-4" d="M316.52,304.31h-1.39a9.78,9.78,0,0,1-9.23-7.57l-1.2-5.62a7.31,7.31,0,0,1,1.36-6.17,7.12,7.12,0,0,1,5.59-2.56H313a9.79,9.79,0,0,1,9.23,7.57l1.19,5.62a7.31,7.31,0,0,1-1.36,6.17A7.12,7.12,0,0,1,316.52,304.31Zm-4.87-16.37a1.61,1.61,0,0,0-1.27.5,1.79,1.79,0,0,0-.24,1.52l1.2,5.62a4.23,4.23,0,0,0,3.8,3.18h1.39a1.61,1.61,0,0,0,1.27-.5,1.79,1.79,0,0,0,.24-1.52l-1.19-5.62a4.23,4.23,0,0,0-3.8-3.18h-1.39Z"/><path class="cls-3" d="M370.72,301.53h-1.39a7,7,0,0,1-6.52-5.37l-1.2-5.62a4.22,4.22,0,0,1,4.23-5.37h1.39a7,7,0,0,1,6.52,5.37l1.2,5.62A4.22,4.22,0,0,1,370.72,301.53Z"/><path class="cls-4" d="M370.72,304.31h-1.39a9.79,9.79,0,0,1-9.23-7.57l-1.19-5.62a7.31,7.31,0,0,1,1.36-6.17,7.12,7.12,0,0,1,5.59-2.56h1.39a9.79,9.79,0,0,1,9.23,7.57l1.19,5.62a7.31,7.31,0,0,1-1.36,6.17A7.12,7.12,0,0,1,370.72,304.31Zm-4.87-16.37a1.61,1.61,0,0,0-1.27.5,1.79,1.79,0,0,0-.24,1.52l1.19,5.62a4.23,4.23,0,0,0,3.8,3.18h1.39a1.61,1.61,0,0,0,1.27-.5,1.79,1.79,0,0,0,.24-1.52L371,291.12a4.23,4.23,0,0,0-3.8-3.18h-1.39Z"/><path class="cls-3" d="M350.39,323.74h-5.48c-11.74,0-23.27-9.51-25.77-21.25l-4.49-21.1c-2.5-11.74,5-21.25,16.73-21.25h5.48c11.74,0,23.27,9.51,25.77,21.25l4.49,21.1C369.62,314.22,362.13,323.74,350.39,323.74Z"/><path class="cls-4" d="M350.39,326.51h-5.48c-13,0-25.74-10.52-28.48-23.45L311.94,282c-1.4-6.6-.08-12.82,3.72-17.52a19.72,19.72,0,0,1,15.73-7.09h5.48c13,0,25.74,10.52,28.48,23.45l4.49,21.1c1.4,6.6.08,12.82-3.72,17.52A19.72,19.72,0,0,1,350.39,326.51Zm-19-63.6a14.28,14.28,0,0,0-11.41,5c-2.73,3.37-3.65,7.94-2.6,12.87l4.49,21.1c2.23,10.5,12.57,19.05,23.05,19.05h5.48a14.28,14.28,0,0,0,11.41-5c2.73-3.37,3.65-7.94,2.6-12.87L359.92,282c-2.23-10.5-12.57-19.05-23.05-19.05h-5.48Z"/><path class="cls-4" d="M316.75,291.23s-10.45-9.31-10.81-20.32,8.81-8.33,8.81-8.33-1.9-16.23,18.67-17.08,50.05,21,31.76,47.84l-5.39-11.43s-24.48,1.69-40.57-9.6C319.22,272.32,323.62,287.7,316.75,291.23Z"/><path class="cls-4" d="M359.74,309c-1.39,1.87-4.33,2-6.59.17a8.27,8.27,0,0,0-5.06-1.86h-7.86a5.44,5.44,0,0,0-4.27,1.86c-1.51,1.78-4.48,1.7-6.66-.17l-10.74-9.26c5.86,27.56,29.53,26.06,29.53,26.06s24.31,1.5,18.45-26.06Zm-5.67,11a2.35,2.35,0,0,1-1.89.86,3.61,3.61,0,0,1-2.26-.86l-2.85-1.34h-1L343.79,320a2.35,2.35,0,0,1-1.89.86,3.61,3.61,0,0,1-2.26-.86l-4.19-3.45,1.25-1.6a6.56,6.56,0,0,1,5.27-2.39h6.59a10.06,10.06,0,0,1,6.29,2.39l1.93,1.6Z"/><path class="cls-3" d="M801.35,278.14H491.23c-8.53,0-16.91-6.91-18.72-15.44h0c-1.81-8.53,3.63-15.44,12.16-15.44H794.78c8.53,0,16.91,6.91,18.72,15.44h0C815.32,271.23,809.88,278.14,801.35,278.14Z"/><path class="cls-4" d="M801.35,280.92H491.23c-9.92,0-19.34-7.75-21.44-17.64a15.63,15.63,0,0,1,2.85-13.36,15.07,15.07,0,0,1,12-5.43H794.78c9.92,0,19.34,7.75,21.44,17.64a15.63,15.63,0,0,1-2.85,13.36A15.07,15.07,0,0,1,801.35,280.92ZM484.66,250a9.63,9.63,0,0,0-7.7,3.37,10.19,10.19,0,0,0-1.74,8.71c1.55,7.3,8.73,13.24,16,13.24H801.35A9.63,9.63,0,0,0,809,272a10.19,10.19,0,0,0,1.74-8.71c-1.55-7.3-8.73-13.24-16-13.24H484.66Z"/><path class="cls-3" d="M625.76,330.23H502.3c-8.53,0-16.91-6.91-18.72-15.44h0c-1.81-8.53,3.63-15.44,12.16-15.44H619.19c8.53,0,16.91,6.91,18.72,15.44h0C639.73,323.32,634.29,330.23,625.76,330.23Z"/><path class="cls-4" d="M625.76,333H502.3c-9.92,0-19.34-7.75-21.44-17.64A15.63,15.63,0,0,1,483.72,302a15.07,15.07,0,0,1,12-5.43H619.19c9.92,0,19.34,7.75,21.44,17.64a15.63,15.63,0,0,1-2.86,13.36A15.07,15.07,0,0,1,625.76,333Zm-130-30.88a9.63,9.63,0,0,0-7.7,3.37,10.19,10.19,0,0,0-1.74,8.71c1.55,7.3,8.73,13.24,16,13.24H625.76a9.63,9.63,0,0,0,7.7-3.37,10.19,10.19,0,0,0,1.74-8.71c-1.55-7.3-8.73-13.24-16-13.24H495.74Z"/><path class="cls-3" d="M482.08,477l31,146c1.61,7.59-3.24,13.75-10.83,13.75H326.79c-7.59,0-15.06-6.16-16.67-13.75l-31-146c-1.61-7.59,3.24-13.75,10.83-13.75H465.4C473,463.27,480.46,469.43,482.08,477Z"/><path class="cls-4" d="M502.29,639.54H326.79c-9,0-17.49-7-19.39-15.95l-31-146A14.22,14.22,0,0,1,279,465.44a13.72,13.72,0,0,1,10.94-5H465.4c9,0,17.49,7,19.39,15.95l31,146a14.22,14.22,0,0,1-2.61,12.15A13.72,13.72,0,0,1,502.29,639.54ZM289.9,466a8.28,8.28,0,0,0-6.62,2.89,8.78,8.78,0,0,0-1.49,7.5l31,146c1.33,6.26,7.72,11.55,14,11.55h175.5a8.28,8.28,0,0,0,6.62-2.89,8.78,8.78,0,0,0,1.49-7.5l-31-146c-1.33-6.26-7.72-11.55-14-11.55H289.9Z"/><path class="cls-2" d="M482.08,477L485,490.77H282L279.08,477c-1.61-7.59,3.24-13.75,10.83-13.75H465.4C473,463.27,480.46,469.43,482.08,477Z"/><path class="cls-2" d="M485,493.54H282a2.78,2.78,0,0,1-2.72-2.2l-2.92-13.75A14.22,14.22,0,0,1,279,465.44a13.72,13.72,0,0,1,10.94-5H465.4c9,0,17.49,7,19.39,15.95l2.92,13.75A2.78,2.78,0,0,1,485,493.54ZM284.25,488H481.57l-2.21-10.4h0c-1.33-6.26-7.72-11.55-14-11.55H289.9a8.28,8.28,0,0,0-6.62,2.89,8.78,8.78,0,0,0-1.49,7.5Z"/><path class="cls-1" d="M464.7,622l2.55,12H360.67l-2.55-12c-2.41-11.32,2.43-21.47,12.16-25.5l32.82-13.6,38.6,13.6C453.14,600.57,462.29,610.72,464.7,622Z"/><path class="cls-4" d="M382.76,636.79a2.78,2.78,0,0,1-2.71-2.2l-2.62-12.3a2.78,2.78,0,1,1,5.43-1.16l2.62,12.3a2.78,2.78,0,0,1-2.14,3.29A2.82,2.82,0,0,1,382.76,636.79Z"/><path class="cls-3" d="M424.06,596.46c2.63,12.35-11.1,13.3-11.1,13.3s-2.08-10.65-6.42-10.65-1.89,10.65-1.89,10.65-14.13-.95-16.76-13.3c-2-9.63,3-14.69,3-14.69h23.91A25.7,25.7,0,0,1,424.06,596.46Z"/><path class="cls-4" d="M413,612.54a2.78,2.78,0,0,1-2.72-2.24c-0.73-3.71-2.31-7.22-3.35-8.17a19.71,19.71,0,0,0,.47,7,2.78,2.78,0,0,1-2.89,3.39c-5.61-.38-16.87-4.1-19.29-15.49-2.33-11,3.51-17,3.76-17.23a2.78,2.78,0,0,1,2-.81h23.91a2.78,2.78,0,0,1,1.6.5,28.43,28.43,0,0,1,10.38,16.38h0c0.91,4.28.26,7.93-1.94,10.84-3.93,5.21-11.37,5.78-11.69,5.8H413Zm-6.42-16.2c4.85,0,7.37,6.15,8.51,10.23a9.85,9.85,0,0,0,5.37-3.2c1.19-1.59,1.49-3.66.93-6.33a23,23,0,0,0-7.5-12.49H392.23c-1,1.56-2.9,5.36-1.63,11.33,1.42,6.66,6.94,9.35,10.68,10.42-0.26-2.78-.14-6.15,1.44-8.14A4.78,4.78,0,0,1,406.54,596.34Z"/><path class="cls-3" d="M414,589.26s-0.36,5-8.51,5-10.65-5-10.65-5l-0.42-9.36h16Z"/><path class="cls-4" d="M405.51,597.06c-9.76,0-13-6.29-13.13-6.56a2.77,2.77,0,0,1-.29-1.11L391.67,580a2.78,2.78,0,0,1,2.77-2.9h16a2.78,2.78,0,0,1,2.59,1.79l3.56,9.35a2.78,2.78,0,0,1,.17,1.19C416.6,592.09,414,597.06,405.51,597.06Zm-7.91-8.66c0.7,0.9,2.92,3.11,7.91,3.11,4,0,5.22-1.35,5.6-2.1l-2.56-6.72h-11.2Z"/><path class="cls-4" d="M445.15,636.79a2.78,2.78,0,0,1-2.71-2.2l-2.62-12.3a2.78,2.78,0,1,1,5.43-1.16l2.62,12.3a2.78,2.78,0,0,1-2.14,3.29A2.82,2.82,0,0,1,445.15,636.79Z"/><path class="cls-3" d="M372.08,562.8h-1.39a7,7,0,0,1-6.52-5.37l-1.2-5.62a4.22,4.22,0,0,1,4.23-5.37h1.39a7,7,0,0,1,6.52,5.37l1.2,5.62A4.22,4.22,0,0,1,372.08,562.8Z"/><path class="cls-4" d="M372.08,565.58h-1.39a9.79,9.79,0,0,1-9.23-7.57l-1.19-5.62a7.31,7.31,0,0,1,1.36-6.17,7.12,7.12,0,0,1,5.59-2.56h1.39a9.79,9.79,0,0,1,9.23,7.57l1.19,5.62a7.31,7.31,0,0,1-1.36,6.17A7.12,7.12,0,0,1,372.08,565.58Zm-4.87-16.37a1.61,1.61,0,0,0-1.27.5,1.79,1.79,0,0,0-.24,1.52l1.19,5.62a4.23,4.23,0,0,0,3.8,3.18h1.39a1.61,1.61,0,0,0,1.27-.5,1.79,1.79,0,0,0,.24-1.52l-1.19-5.62a4.23,4.23,0,0,0-3.8-3.18h-1.39Z"/><path class="cls-3" d="M426.27,562.8h-1.39a7,7,0,0,1-6.52-5.37l-1.2-5.62a4.22,4.22,0,0,1,4.23-5.37h1.39a7,7,0,0,1,6.52,5.37l1.2,5.62A4.22,4.22,0,0,1,426.27,562.8Z"/><path class="cls-4" d="M426.27,565.58h-1.39a9.79,9.79,0,0,1-9.23-7.57l-1.19-5.62a7.31,7.31,0,0,1,1.36-6.17,7.12,7.12,0,0,1,5.59-2.56h1.39a9.79,9.79,0,0,1,9.23,7.57l1.19,5.62a7.31,7.31,0,0,1-1.36,6.17A7.12,7.12,0,0,1,426.27,565.58Zm-4.87-16.37a1.61,1.61,0,0,0-1.27.5,1.79,1.79,0,0,0-.24,1.52l1.19,5.62a4.23,4.23,0,0,0,3.8,3.18h1.39a1.61,1.61,0,0,0,1.27-.5,1.79,1.79,0,0,0,.24-1.52l-1.19-5.62a4.23,4.23,0,0,0-3.8-3.18H421.4Z"/><path class="cls-3" d="M405.94,585h-5.48c-11.74,0-23.27-9.51-25.77-21.25l-4.49-21.1c-2.5-11.74,5-21.25,16.73-21.25h5.48c11.74,0,23.27,9.51,25.77,21.25l4.49,21.1C425.17,575.49,417.68,585,405.94,585Z"/><path class="cls-4" d="M405.94,587.78h-5.48c-13,0-25.74-10.52-28.48-23.45l-4.49-21.1c-1.4-6.6-.08-12.82,3.72-17.52a19.72,19.72,0,0,1,15.73-7.09h5.48c13,0,25.74,10.52,28.48,23.45l4.49,21.1c1.4,6.6.08,12.82-3.72,17.52A19.72,19.72,0,0,1,405.94,587.78Zm-19-63.6a14.28,14.28,0,0,0-11.41,5c-2.73,3.37-3.65,7.94-2.6,12.87l4.49,21.1c2.23,10.5,12.57,19.05,23.05,19.05h5.48a14.28,14.28,0,0,0,11.41-5c2.73-3.37,3.65-7.94,2.6-12.87l-4.49-21.1c-2.23-10.5-12.57-19.05-23.05-19.05h-5.48Z"/><path class="cls-4" d="M372.3,552.5s-10.45-9.31-10.81-20.32,8.81-8.33,8.81-8.33-1.9-16.23,18.67-17.08,50.05,21,31.76,47.84l-5.39-11.43s-24.48,1.69-40.57-9.6C374.77,533.59,379.17,549,372.3,552.5Z"/><path class="cls-3" d="M856.9,539.41H546.78c-8.53,0-16.91-6.91-18.72-15.44h0c-1.81-8.53,3.63-15.44,12.16-15.44H850.34c8.53,0,16.91,6.91,18.72,15.44h0C870.87,532.49,865.43,539.41,856.9,539.41Z"/><path class="cls-4" d="M856.9,542.18H546.78c-9.92,0-19.34-7.75-21.44-17.64a15.63,15.63,0,0,1,2.85-13.36,15.07,15.07,0,0,1,12-5.43H850.34c9.92,0,19.33,7.75,21.44,17.64a15.63,15.63,0,0,1-2.86,13.36A15.08,15.08,0,0,1,856.9,542.18ZM540.22,511.31a9.63,9.63,0,0,0-7.7,3.37,10.19,10.19,0,0,0-1.74,8.71c1.55,7.3,8.73,13.24,16,13.24H856.9a9.63,9.63,0,0,0,7.7-3.37,10.19,10.19,0,0,0,1.74-8.71c-1.55-7.3-8.73-13.24-16-13.24H540.22Z"/><path class="cls-3" d="M681.31,591.5H557.86c-8.53,0-16.91-6.91-18.72-15.44h0c-1.81-8.53,3.63-15.44,12.16-15.44H674.75c8.53,0,16.91,6.91,18.72,15.44h0C695.28,584.59,689.84,591.5,681.31,591.5Z"/><path class="cls-4" d="M681.31,594.28H557.86c-9.92,0-19.34-7.75-21.44-17.64a15.63,15.63,0,0,1,2.86-13.36,15.07,15.07,0,0,1,12-5.43H674.75c9.92,0,19.33,7.75,21.44,17.64a15.63,15.63,0,0,1-2.86,13.36A15.08,15.08,0,0,1,681.31,594.28Zm-130-30.88a9.63,9.63,0,0,0-7.7,3.37,10.19,10.19,0,0,0-1.74,8.71c1.55,7.3,8.73,13.24,16,13.24H681.31a9.63,9.63,0,0,0,7.7-3.37,10.19,10.19,0,0,0,1.74-8.71c-1.55-7.3-8.73-13.24-16-13.24H551.29Z"/><path class="cls-3" d="M537.63,738.28l31,146c1.61,7.59-3.24,13.75-10.83,13.75H382.35c-7.59,0-15.06-6.16-16.67-13.75l-31-146c-1.61-7.59,3.24-13.75,10.83-13.75H521C528.55,724.53,536,730.69,537.63,738.28Z"/><path class="cls-4" d="M557.85,900.81H382.35c-9,0-17.49-7-19.39-15.95l-31-146a14.22,14.22,0,0,1,2.61-12.15,13.72,13.72,0,0,1,10.94-5H521c9,0,17.49,7,19.39,15.95l31,146a14.22,14.22,0,0,1-2.61,12.15A13.72,13.72,0,0,1,557.85,900.81ZM345.46,727.31a8.28,8.28,0,0,0-6.62,2.89,8.78,8.78,0,0,0-1.49,7.5l31,146c1.33,6.26,7.72,11.55,14,11.55h175.5a8.28,8.28,0,0,0,6.62-2.89,8.78,8.78,0,0,0,1.49-7.5l-31-146c-1.33-6.26-7.72-11.55-14-11.55H345.46Z"/><path class="cls-2" d="M537.63,738.28L540.55,752h-203l-2.92-13.75c-1.61-7.59,3.24-13.75,10.83-13.75H521C528.55,724.53,536,730.69,537.63,738.28Z"/><path class="cls-2" d="M540.55,754.81h-203a2.78,2.78,0,0,1-2.72-2.2l-2.92-13.75a14.22,14.22,0,0,1,2.61-12.15,13.72,13.72,0,0,1,10.94-5H521c9,0,17.49,7,19.39,15.95l2.92,13.75A2.78,2.78,0,0,1,540.55,754.81ZM339.8,749.26H537.12l-2.21-10.4h0c-1.33-6.26-7.72-11.55-14-11.55H345.46a8.28,8.28,0,0,0-6.62,2.89,8.78,8.78,0,0,0-1.49,7.5Z"/><path class="cls-4" d="M420.39,793.25l-3.34.2,8.77,41.24A30,30,0,0,0,448.35,857a66.45,66.45,0,0,0,13.29,1.25l-13.82-65H420.39Z"/><path class="cls-4" d="M475.25,793.25l3.43,0.2,8.77,41.24c2.27,10.68-3.08,20.08-13.05,22.31a58.67,58.67,0,0,1-12.75,1.25l-13.82-65h27.43Z"/><path class="cls-2" d="M520.26,883.31l2.55,12H416.23l-2.55-12c-2.41-11.32,2.43-21.47,12.16-25.5l32.82-13.6,38.6,13.6C508.69,861.84,517.85,872,520.26,883.31Z"/><path class="cls-4" d="M438.32,898.06a2.78,2.78,0,0,1-2.71-2.2L433,883.56a2.78,2.78,0,0,1,5.43-1.15l2.62,12.3A2.78,2.78,0,0,1,438.32,898.06Z"/><path class="cls-3" d="M479.61,857.73c2.63,12.35-11.1,13.3-11.1,13.3s-2.08-10.65-6.42-10.65S460.2,871,460.2,871s-14.13-.95-16.76-13.3c-2-9.63,3-14.69,3-14.69h23.91A25.7,25.7,0,0,1,479.61,857.73Z"/><path class="cls-4" d="M468.51,873.81a2.78,2.78,0,0,1-2.72-2.24c-0.73-3.71-2.31-7.22-3.35-8.17a19.71,19.71,0,0,0,.47,7A2.78,2.78,0,0,1,460,873.8c-5.61-.38-16.87-4.1-19.29-15.49-2.33-11,3.51-17,3.76-17.23a2.77,2.77,0,0,1,2-.81h23.91a2.78,2.78,0,0,1,1.6.5,28.43,28.43,0,0,1,10.38,16.38h0c0.91,4.28.26,7.93-1.94,10.84-3.93,5.21-11.37,5.78-11.69,5.8h-0.19Zm-6.42-16.2c4.85,0,7.37,6.15,8.51,10.23a9.84,9.84,0,0,0,5.37-3.2c1.19-1.59,1.49-3.66.93-6.33h0a23.05,23.05,0,0,0-7.5-12.49H447.79c-1,1.56-2.9,5.36-1.63,11.33,1.41,6.62,6.94,9.32,10.68,10.4-0.25-2.78-.14-6.14,1.44-8.12A4.78,4.78,0,0,1,462.09,857.61Z"/><path class="cls-3" d="M469.58,850.53s-0.36,5-8.51,5-10.65-5-10.65-5L450,841.17h16Z"/><path class="cls-4" d="M461.06,858.32c-9.76,0-13-6.29-13.13-6.56a2.77,2.77,0,0,1-.29-1.11l-0.42-9.36a2.78,2.78,0,0,1,2.77-2.9h16a2.78,2.78,0,0,1,2.59,1.79l3.56,9.35a2.77,2.77,0,0,1,.17,1.19C472.16,853.36,469.55,858.32,461.06,858.32Zm-7.91-8.66c0.7,0.9,2.92,3.11,7.91,3.11,4,0,5.22-1.35,5.6-2.1L464.1,844H452.9Z"/><path class="cls-4" d="M500.7,898.06a2.78,2.78,0,0,1-2.71-2.2l-2.62-12.3a2.78,2.78,0,0,1,5.43-1.15l2.62,12.3A2.78,2.78,0,0,1,500.7,898.06Z"/><path class="cls-3" d="M427.63,824.07h-1.39a7,7,0,0,1-6.52-5.37l-1.2-5.62a4.22,4.22,0,0,1,4.23-5.37h1.39a7,7,0,0,1,6.52,5.37l1.2,5.62A4.22,4.22,0,0,1,427.63,824.07Z"/><path class="cls-4" d="M427.63,826.85h-1.39a9.78,9.78,0,0,1-9.23-7.57l-1.19-5.62a7.31,7.31,0,0,1,1.36-6.17,7.12,7.12,0,0,1,5.59-2.56h1.39a9.78,9.78,0,0,1,9.23,7.57l1.19,5.62a7.31,7.31,0,0,1-1.36,6.17A7.12,7.12,0,0,1,427.63,826.85Zm-4.87-16.37a1.61,1.61,0,0,0-1.27.5,1.79,1.79,0,0,0-.24,1.52l1.19,5.62a4.23,4.23,0,0,0,3.8,3.18h1.39a1.61,1.61,0,0,0,1.27-.5,1.79,1.79,0,0,0,.24-1.52L428,813.65a4.23,4.23,0,0,0-3.8-3.18h-1.39Z"/><path class="cls-3" d="M481.82,824.07h-1.39a7,7,0,0,1-6.52-5.37l-1.2-5.62A4.22,4.22,0,0,1,477,807.7h1.39a7,7,0,0,1,6.52,5.37l1.2,5.62A4.22,4.22,0,0,1,481.82,824.07Z"/><path class="cls-4" d="M481.82,826.85h-1.39a9.78,9.78,0,0,1-9.23-7.57L470,813.65a7.31,7.31,0,0,1,1.36-6.17,7.12,7.12,0,0,1,5.59-2.56h1.39a9.78,9.78,0,0,1,9.23,7.57l1.2,5.62a7.31,7.31,0,0,1-1.36,6.17A7.12,7.12,0,0,1,481.82,826.85ZM477,810.48a1.61,1.61,0,0,0-1.27.5,1.79,1.79,0,0,0-.24,1.52l1.19,5.62a4.23,4.23,0,0,0,3.8,3.18h1.39a1.61,1.61,0,0,0,1.27-.5,1.79,1.79,0,0,0,.24-1.52l-1.2-5.62a4.23,4.23,0,0,0-3.8-3.18H477Z"/><path class="cls-3" d="M461.5,846.27H456c-11.74,0-23.27-9.51-25.77-21.25l-4.49-21.1c-2.5-11.74,5-21.25,16.73-21.25H448c11.74,0,23.27,9.51,25.77,21.25l4.49,21.1C480.72,836.76,473.23,846.27,461.5,846.27Z"/><path class="cls-4" d="M461.5,849.05H456c-13,0-25.73-10.52-28.48-23.45L423,804.5c-1.4-6.6-.08-12.82,3.72-17.52a19.72,19.72,0,0,1,15.73-7.09H448c13,0,25.74,10.52,28.48,23.45l4.49,21.1c1.4,6.6.08,12.82-3.72,17.52A19.72,19.72,0,0,1,461.5,849.05Zm-19-63.6a14.28,14.28,0,0,0-11.41,5c-2.73,3.37-3.65,7.94-2.6,12.87l4.49,21.1C435.2,835,445.54,843.5,456,843.5h5.48a14.28,14.28,0,0,0,11.41-5c2.73-3.37,3.65-7.94,2.6-12.87L471,804.5c-2.23-10.5-12.57-19.05-23.05-19.05h-5.48Z"/><path class="cls-4" d="M477.36,813.77s6.49-9.31,2.17-20.32-12.35-8.33-12.35-8.33-5-16.23-25.93-17.08-41.11,21-11.42,47.84l0.53-11.43s25.2,1.69,36.49-9.6C466.85,794.86,469,810.24,477.36,813.77Z"/><path class="cls-3" d="M912.46,800.68H602.34c-8.53,0-16.91-6.91-18.72-15.44h0c-1.81-8.53,3.63-15.44,12.16-15.44H905.89c8.53,0,16.91,6.91,18.72,15.44h0C926.43,793.76,921,800.68,912.46,800.68Z"/><path class="cls-4" d="M912.46,803.45H602.34c-9.92,0-19.34-7.75-21.44-17.64a15.63,15.63,0,0,1,2.86-13.36,15.07,15.07,0,0,1,12-5.43H905.89c9.92,0,19.34,7.75,21.44,17.64A15.63,15.63,0,0,1,924.47,798,15.07,15.07,0,0,1,912.46,803.45ZM595.77,772.57a9.63,9.63,0,0,0-7.7,3.37,10.2,10.2,0,0,0-1.74,8.71c1.55,7.3,8.73,13.24,16,13.24H912.46a9.63,9.63,0,0,0,7.7-3.37,10.19,10.19,0,0,0,1.74-8.71c-1.55-7.3-8.73-13.24-16-13.24H595.77Z"/><path class="cls-3" d="M736.87,852.77H613.41c-8.53,0-16.91-6.91-18.72-15.44h0c-1.81-8.53,3.63-15.44,12.16-15.44H730.3c8.53,0,16.91,6.91,18.72,15.44h0C750.84,845.86,745.39,852.77,736.87,852.77Z"/><path class="cls-4" d="M736.87,855.55H613.41c-9.92,0-19.33-7.75-21.44-17.64a15.63,15.63,0,0,1,2.86-13.36,15.07,15.07,0,0,1,12-5.43H730.3c9.92,0,19.33,7.75,21.44,17.64a15.63,15.63,0,0,1-2.86,13.36A15.08,15.08,0,0,1,736.87,855.55Zm-130-30.88a9.63,9.63,0,0,0-7.7,3.37,10.19,10.19,0,0,0-1.74,8.71c1.55,7.3,8.73,13.24,16,13.24H736.87a9.63,9.63,0,0,0,7.7-3.37,10.19,10.19,0,0,0,1.74-8.71c-1.55-7.3-8.73-13.24-16-13.24H606.85Z"/><polygon class="cls-3" points="994.68 1111.39 996.91 1168.65 1023.09 1170.76 1026.67 1108.79 994.68 1111.39"/><path class="cls-4" d="M1023.09,1173.54h-0.22l-26.18-2.11a2.78,2.78,0,0,1-2.55-2.66l-2.23-57.26a2.78,2.78,0,0,1,2.55-2.88l32-2.6a2.78,2.78,0,0,1,3,2.93l-3.58,62A2.78,2.78,0,0,1,1023.09,1173.54Zm-23.5-7.46,20.89,1.68,3.23-55.95-26.15,2.13Z"/><path class="cls-1" d="M1078.8,771.48c-2.06,15.38-36.73,347.9-36.73,347.9l-62.16.42L968.28,956l-3.22-45.31-15.9-223.94c-6.14-75.59,118.1-76,128.95-6.72C1082.66,709.08,1080.86,756.09,1078.8,771.48Z"/><path class="cls-4" d="M1029.79,1098.47h-0.25a2.78,2.78,0,0,1-2.51-3l36.54-401.12a2.78,2.78,0,0,1,5.53.5l-36.54,401.12A2.78,2.78,0,0,1,1029.79,1098.47Z"/><path class="cls-4" d="M1061.75,747.56a10.21,10.21,0,0,1-7.73-3.61c-10.82-12.08-6.62-53.48-6.11-58.16a2.78,2.78,0,1,1,5.52.61c-1.32,12-3,45.18,4.73,53.85a4.63,4.63,0,0,0,3.59,1.76A2.78,2.78,0,0,1,1061.75,747.56Z"/><path class="cls-3" d="M1013.56,930.65c0.32,19.37-11.35,35.27-26.08,35.52-7.46.12-14.26-3.79-19.21-10.2l-3.22-45.31c4.72-8.75,12.44-14.51,21.26-14.65C1001,895.78,1013.24,911.28,1013.56,930.65Z"/><path class="cls-4" d="M1037.75,1109.71h0l-51.19-.25a2.78,2.78,0,1,1,0-5.55l51.19,0.25A2.78,2.78,0,0,1,1037.75,1109.71Z"/><path class="cls-1" d="M906.08,1265.55v12.2h125.6s0.41-6.37.8-17.08c0.78-21.07,1.53-59-.8-98.11l-45.82-4s-23.46,39.44-54.08,72.89c-3.18,3.47-11.58,9.18-15.11,12.39C909.91,1250,906.08,1257.62,906.08,1265.55Z"/><path class="cls-4" d="M971.81,1234.23a2.78,2.78,0,0,1-2.28-4.36c21.83-31.45,34-66.12,34.09-66.47a2.78,2.78,0,0,1,5.25,1.82c-0.12.35-12.51,35.75-34.77,67.82A2.78,2.78,0,0,1,971.81,1234.23Z"/><ellipse class="cls-3" cx="1017.38" cy="1214.15" rx="8.25" ry="18.65"/><path class="cls-4" d="M1017.38,1235.91c-7.45,0-11.35-10.95-11.35-21.76s3.9-21.76,11.35-21.76,11.35,10.95,11.35,21.76S1024.83,1235.91,1017.38,1235.91Zm0-37.3c-1.49,0-5.14,5.45-5.14,15.55s3.65,15.54,5.14,15.54,5.14-5.45,5.14-15.54S1018.87,1198.6,1017.38,1198.6Z"/><path class="cls-3" d="M906.08,1265.55v12.2h125.6s0.41-6.37.8-17.08H974.94s3.24-32.56-43.16-29.23c-3.18,3.47-11.58,9.18-15.11,12.39C909.91,1250,906.08,1257.62,906.08,1265.55Z"/><path class="cls-4" d="M1031.68,1280.53H906.08a2.78,2.78,0,0,1-2.78-2.78v-12.2c0-8.57,4.08-17,11.5-23.77,1.54-1.4,3.86-3.18,6.32-5.06a81.85,81.85,0,0,0,8.61-7.15,2.78,2.78,0,0,1,1.85-.9c17.4-1.25,30.21,2.24,38.11,10.36a29.24,29.24,0,0,1,8,18.87h54.74a2.78,2.78,0,0,1,2.78,2.88c-0.39,10.62-.8,17.09-0.8,17.15A2.78,2.78,0,0,1,1031.68,1280.53ZM908.86,1275h120.2c0.13-2.39.33-6.34,0.53-11.52H974.94a2.78,2.78,0,0,1-2.76-3.05c0-.09.83-10-6.52-17.55-6.56-6.7-17.54-9.63-32.63-8.7a102.58,102.58,0,0,1-8.53,7c-2.36,1.81-4.59,3.51-6,4.75-6.25,5.69-9.69,12.68-9.69,19.67V1275Z"/><polygon class="cls-3" points="1225.36 1112.05 1234.31 1168.65 1209.04 1175.82 1193.47 1115.73 1225.36 1112.05"/><path class="cls-4" d="M1209,1178.59a2.78,2.78,0,0,1-2.69-2.08l-15.57-60.09a2.78,2.78,0,0,1,2.37-3.46l31.88-3.68a2.79,2.79,0,0,1,3.06,2.33l9,56.6a2.78,2.78,0,0,1-2,3.11l-25.27,7.17A2.79,2.79,0,0,1,1209,1178.59ZM1197,1118.12l14.06,54.25,20.16-5.72-8.15-51.54Z"/><path class="cls-1" d="M1076.68,795c5,14.68,103.75,334.09,103.75,334.09l61.05-11.69L1221,954.47l-5.66-45.07-28-222.75c-8.69-75.34-130.63-51.52-127.79,18.51C1060.74,734.57,1071.66,780.32,1076.68,795Z"/><path class="cls-4" d="M1061.61,749.11h-0.19a2.78,2.78,0,0,1-2.58-3l4.71-70.16a2.78,2.78,0,0,1,5.54.37l-4.71,70.16A2.78,2.78,0,0,1,1061.61,749.11Z"/><path class="cls-4" d="M1187.87,1106.27a2.78,2.78,0,0,1-2.66-2l-106.92-350.5a2.78,2.78,0,1,1,5.31-1.62l106.92,350.5A2.78,2.78,0,0,1,1187.87,1106.27Z"/><path class="cls-3" d="M1171.65,938.45c3.46,19.07,18,32.39,32.49,29.77,7.34-1.33,13.25-6.49,16.85-13.74l-5.66-45.07c-6.33-7.66-15-11.81-23.7-10.23C1177.15,901.8,1168.2,919.38,1171.65,938.45Z"/><path class="cls-4" d="M1182.24,1118.84a2.78,2.78,0,0,1-.55-5.5l50.16-10.21a2.78,2.78,0,0,1,1.11,5.44l-50.16,10.21A2.78,2.78,0,0,1,1182.24,1118.84Z"/><path class="cls-1" d="M1325.15,1265.55v12.2h-125.6s-0.41-6.37-.8-17.08c-0.78-21.07-1.53-59,.8-98.11l45.82-4s23.46,39.44,54.08,72.89c3.18,3.47,11.58,9.18,15.11,12.39C1321.31,1250,1325.15,1257.62,1325.15,1265.55Z"/><path class="cls-4" d="M1259.42,1234.23a2.78,2.78,0,0,1-2.28-1.19c-22.26-32.07-34.65-67.46-34.78-67.82a2.78,2.78,0,0,1,5.25-1.82c0.12,0.35,12.28,35,34.09,66.47A2.78,2.78,0,0,1,1259.42,1234.23Z"/><ellipse class="cls-3" cx="1213.85" cy="1214.15" rx="8.25" ry="18.65"/><path class="cls-4" d="M1213.85,1235.91c-7.46,0-11.36-10.95-11.36-21.76s3.9-21.76,11.36-21.76,11.35,10.95,11.35,21.76S1221.3,1235.91,1213.85,1235.91Zm0-37.3c-1.49,0-5.14,5.45-5.14,15.55s3.65,15.54,5.14,15.54,5.14-5.45,5.14-15.54S1215.34,1198.6,1213.85,1198.6Z"/><path class="cls-3" d="M1325.15,1265.55v12.2h-125.6s-0.41-6.37-.8-17.08h57.53s-3.24-32.56,43.16-29.23c3.18,3.47,11.58,9.18,15.11,12.39C1321.31,1250,1325.15,1257.62,1325.15,1265.55Z"/><path class="cls-4" d="M1325.15,1280.53h-125.6a2.78,2.78,0,0,1-2.77-2.6c0-.06-0.41-6.53-0.8-17.15a2.78,2.78,0,0,1,2.78-2.88h54.74a29.24,29.24,0,0,1,8-18.87c7.9-8.12,20.72-11.61,38.11-10.36a2.78,2.78,0,0,1,1.85.9,81.85,81.85,0,0,0,8.61,7.15c2.46,1.88,4.78,3.66,6.32,5.06,7.42,6.76,11.5,15.2,11.5,23.77v12.2A2.78,2.78,0,0,1,1325.15,1280.53Zm-123-5.55h120.2v-9.42c0-7-3.44-14-9.69-19.67-1.36-1.24-3.59-2.95-6-4.75a102.58,102.58,0,0,1-8.53-7c-15.1-.92-26.07,2-32.63,8.7-7.36,7.51-6.53,17.46-6.52,17.56a2.78,2.78,0,0,1-2.76,3h-54.65C1201.84,1268.64,1202,1272.59,1202.17,1275Z"/><path class="cls-2" d="M980.7,381.44c-33.3,14.18-70.78,119.84-69,159.8,1.82,41.22,57.84,36.54,76.27,7.11C1019.64,493.82,1015.26,366.72,980.7,381.44Z"/><path class="cls-2" d="M1191.24,410.32L1194.86,703s-8.21,1.13-22.38,2.44v-33.7a4.91,4.91,0,0,0-5.84-4.83,5.06,5.06,0,0,0-4,5v34.36c-46.54,3.79-136.15,7.42-219.38-10,0,0,10.62-246,37.43-314.88,0,0,47.08-26.87,101.11-25.78,36.59,0.74,73.73,17.86,93.88,28.83A29.82,29.82,0,0,1,1191.24,410.32Z"/><path class="cls-4" d="M955.75,526.73h-0.29a2.78,2.78,0,0,1-2.48-3c6.16-60.22,13.23-104.26,21-130.9a2.78,2.78,0,0,1,5.33,1.56c-7.68,26.32-14.69,70-20.81,129.91A2.78,2.78,0,0,1,955.75,526.73Z"/><path class="cls-4" d="M1091.22,697.56A1119.5,1119.5,0,0,1,954,688.73a2.67,2.67,0,0,1,.74-5.28c1,0.14,101.2,14,195.28,6.65a2.67,2.67,0,0,1,.41,5.32C1130.61,696.95,1110.56,697.56,1091.22,697.56Z"/><path class="cls-3" d="M1113.85,381c-7.4,17.21-21.3,29.18-30,31.91-2.24-12.27-8.4-27.71-8.4-27.71-6.85,9.42-10.46,21.89-11.36,27.57-22.17-6.09-24.69-32.4-24.69-32.4a36.13,36.13,0,0,1,36.83-31.9C1111.07,349.62,1113.85,381,1113.85,381Z"/><path class="cls-4" d="M1083.85,415.66a2.78,2.78,0,0,1-2.73-2.28,152.78,152.78,0,0,0-6.33-22.05,71.45,71.45,0,0,0-8,21.85,2.78,2.78,0,0,1-3.48,2.25c-23.74-6.53-26.61-33.66-26.72-34.82a2.75,2.75,0,0,1,0-.61,38.78,38.78,0,0,1,39.68-34.32c36.86,1.25,40.25,34.72,40.28,35.06a2.77,2.77,0,0,1-.21,1.34c-7.59,17.65-22,30.41-31.72,33.46A2.77,2.77,0,0,1,1083.85,415.66Zm-41.65-35.3c0.34,2.6,3.44,22.29,19.78,28.76,1.48-6.43,5-17,11.22-25.58a2.78,2.78,0,0,1,4.83.6A189.78,189.78,0,0,1,1085.9,409c7.49-3.75,18.58-13.78,25.1-28.48-0.62-4.45-5.33-28.33-34.86-29.33A33.27,33.27,0,0,0,1042.2,380.35Z"/><path class="cls-3" d="M1054.51,565.63l-41-11.06a8.25,8.25,0,0,0-5.29.34L978.78,567a8.25,8.25,0,0,0-4.54,10.61l7,18a8.25,8.25,0,0,0,10.32,4.84l13.14-4.42,17.09,4.33a28.79,28.79,0,0,0,19.76-2.06l13-6.37V565.63Z"/><path class="cls-4" d="M1028.83,604.05a31.55,31.55,0,0,1-7.75-1l-16.3-4.13-12.36,4.16a11,11,0,0,1-13.8-6.47l-7-18a11.09,11.09,0,0,1,6.07-14.18l29.38-12.13a11.08,11.08,0,0,1,7.08-.46l41,11.06a2.78,2.78,0,0,1,2.05,2.68V592a2.78,2.78,0,0,1-1.55,2.49l-13,6.37A31.59,31.59,0,0,1,1028.83,604.05Zm-24.16-10.77a2.79,2.79,0,0,1,.68.08l17.09,4.33a26,26,0,0,0,17.86-1.86l11.43-5.61V567.76l-39-10.5a5.51,5.51,0,0,0-3.51.23l-29.38,12.13a5.5,5.5,0,0,0-3,7l7,18a5.47,5.47,0,0,0,6.85,3.21l13.14-4.42A2.77,2.77,0,0,1,1004.67,593.28Z"/><path class="cls-2" d="M1208.78,578c-4.43,11.13-10,19.7-16.66,24.29-8.77,6-20.1,9.42-32.52,11.07-46.87,6.19-109.35-12.8-109.35-12.8l-1.54-40.88L1137,543.62s8.73-158,38-156.22C1218.12,390,1225.53,536,1208.78,578Z"/><path class="cls-3" d="M1208.78,578c-4.4,11.15-10,19.7-16.66,24.29-8.77,6-20.1,9.42-32.52,11.07A33,33,0,0,1,1208.78,578Z"/><path class="cls-4" d="M1163.6,575.85a2.77,2.77,0,0,1-2.06-.92L1135,545.48a2.78,2.78,0,0,1,4.13-3.72l26.56,29.46A2.78,2.78,0,0,1,1163.6,575.85Z"/><path class="cls-4" d="M1139,617.42c-42.4,0-87.43-13.52-89.57-14.17a2.78,2.78,0,0,1-2-2.55l-1.54-40.89a2.78,2.78,0,0,1,2.28-2.84l86.19-15.7c1-16.57,7.82-116.25,26.85-146.89a2.78,2.78,0,1,1,4.72,2.93c-19.59,31.55-26.09,145.31-26.15,146.46a2.78,2.78,0,0,1-2.27,2.58l-86,15.66,1.37,36.48c10.37,2.95,61.26,16.59,101.81,12.67a2.78,2.78,0,0,1,.53,5.53C1150,617.19,1144.51,617.42,1139,617.42Z"/><path class="cls-4" d="M1072.16,592.53a2.78,2.78,0,0,1-2.77-2.59l-2.25-33.9a2.78,2.78,0,0,1,5.54-.37l2.25,33.9a2.78,2.78,0,0,1-2.59,3h-0.19Z"/><circle class="cls-3" cx="1060.4" cy="590.02" r="4.55" transform="translate(-138.54 777.41) rotate(-37.98)"/><path class="cls-4" d="M1060.41,597.35a7.43,7.43,0,0,1-.91-0.06,7.33,7.33,0,1,1,6.67-11.78h0A7.33,7.33,0,0,1,1060.41,597.35Zm0-9.1a1.77,1.77,0,1,0,1.4.68h0A1.77,1.77,0,0,0,1060.39,588.25Z"/><path class="cls-3" d="M1093.54,308.62L1093,330l-1,36.63c-12.32,8.61-24.31,9.52-35.87.84l1.69-17,2.56-25.77Z"/><path class="cls-4" d="M1072.87,376.39q-9.51,0-18.4-6.66a2.78,2.78,0,0,1-1.1-2.5l4.26-42.79a2.77,2.77,0,0,1,1.55-2.22l33.15-16.1a2.78,2.78,0,0,1,4,2.57l-1.54,58a2.77,2.77,0,0,1-1.18,2.2C1086.5,373.91,1079.58,376.39,1072.87,376.39Zm-13.81-10.2c9.45,6.47,19.36,6.13,30.21-1l1.38-52.06L1063,326.54Z"/><path class="cls-4" d="M1082.1,314.18c-0.17,9.67.72,42.62-25.24,46.18l3.55-35.64Z"/><path class="cls-3" d="M1027.66,321.81c5.35,16.88,14.68,36.45,34.69,28.91,23.79-9,36-29.69,31.37-53.14s-18.24-34.39-45.7-25.83a43.93,43.93,0,0,0-6.8,2.74c-15.21,7.73-20.52,22.79-16.23,38.26C1025.78,315.54,1026.64,318.63,1027.66,321.81Z"/><path class="cls-4" d="M1054,355.16a20.21,20.21,0,0,1-9.27-2.21c-12.26-6.22-18-23.63-22.36-39.47-5.6-20.17,4.4-38,24.88-44.39a2.78,2.78,0,1,1,1.65,5.3c-17.68,5.51-26,20.27-21.18,37.61,2.94,10.61,8.42,30.36,19.52,36,4.16,2.11,8.8,2.15,14.18.12a49.74,49.74,0,0,0,21.17-14.59,2.78,2.78,0,0,1,4.28,3.54,56,56,0,0,1-23.49,16.24A26.59,26.59,0,0,1,1054,355.16Z"/><path class="cls-4" d="M1102,300.44a73.45,73.45,0,0,1-5.94,11.28l-12.24,3.37-4.49-8.23s-7.94,1.3-10.69-3.67a3.14,3.14,0,0,1-.18-0.35c-0.78-1.65-4-9.08-5.37-21.38,0,0-17.17,12.32-27.24,15.56-3.62,1.17-8.25.65-12.69-.49-8.9-2.29-18.69-14-19.15-23.13v-0.18c-0.51-13.48,8.16-5.88,8.16-5.88s-0.26-10.89,6.15-13,12.62,6.68,12.62,6.68a105.64,105.64,0,0,1,38.11-9.66c26.19-1.44,23.54,17.36,23.54,17.36S1112.47,270.78,1102,300.44Z"/><path class="cls-3" d="M1086.2,313.19c-3.11-9.55,1.86-20.08,11.39-23.25a16.74,16.74,0,0,1,6.28-.86c12.79,0.73,15.53,29.59-14.56,33.66Z"/><path class="cls-4" d="M1089.31,325.52a2.78,2.78,0,0,1-.37-5.53c16.15-2.18,21.54-11.7,21.25-19.2-0.17-4.27-2.45-8.71-6.49-8.94a14.07,14.07,0,0,0-5.24.72,15.63,15.63,0,0,0-9.63,19.75,2.78,2.78,0,0,1-5.28,1.72,21.19,21.19,0,0,1,13.15-26.74,19.55,19.55,0,0,1,7.31-1c6.49,0.37,11.41,6.37,11.72,14.27,0.41,10.59-7.49,22.41-26.06,24.91Z"/><path class="cls-3" d="M1038.52,343.15l9.82,15.7,31.39-19.2a5.36,5.36,0,0,1,7.75,2.51h0a5.36,5.36,0,0,1-.57,5.16l-4,5.64,7.61,16.42a15.82,15.82,0,0,1-4.44,19l-22.62,18.19-14.05,15.78-24.85-22.39,13.66-15-5-12.7-3.85-25.69a5,5,0,0,1,3.39-5.48h0A5,5,0,0,1,1038.52,343.15Z"/><path class="cls-4" d="M1049.41,425.1a2.78,2.78,0,0,1-1.86-.71L1022.7,402a2.78,2.78,0,0,1-.2-3.93l12.5-13.73-4.38-11.09a2.79,2.79,0,0,1-.16-0.61l-3.85-25.69a7.76,7.76,0,0,1,14.26-5.27h0l8.36,13.37,29-17.76a8.14,8.14,0,0,1,10.9,11.64l-3.06,4.33,6.93,15a18.56,18.56,0,0,1-5.22,22.3l-22.44,18-13.9,15.61a2.77,2.77,0,0,1-1.92.93h-0.15Zm-20.92-25.36,20.7,18.65,12.2-13.7a2.73,2.73,0,0,1,.33-0.32l22.62-18.19a13,13,0,0,0,3.66-15.64l-7.61-16.42a2.77,2.77,0,0,1,.25-2.77l4-5.64a2.59,2.59,0,0,0-3.46-3.7l-31.39,19.2a2.78,2.78,0,0,1-3.8-.9l-9.82-15.7a2.21,2.21,0,0,0-4.06,1.5l3.8,25.38,4.9,12.4a2.78,2.78,0,0,1-.53,2.89Z"/><path class="cls-2" d="M1056.35,421.87s-53.1,142.83-103.72,150.79c-0.73.12-1.46,0.21-2.18,0.27-25.22,2-35.59-10.22-38.11-25.65-2.29-14,1.86-30.62,7.23-41.62,20.14-41.27,104.54-113.47,104.54-113.47Z"/><path class="cls-4" d="M1039.62,438.85a2.76,2.76,0,0,1-1.89-.74L1006,408.63a2.78,2.78,0,1,1,3.78-4.07L1041.5,434A2.78,2.78,0,0,1,1039.62,438.85Z"/><circle class="cls-3" cx="1041.71" cy="422.78" r="4.56" transform="translate(579.24 1447.49) rotate(-87.8)"/><path class="cls-4" d="M1041.72,430.11h-0.29A7.34,7.34,0,1,1,1041.72,430.11Zm0-9.11a1.78,1.78,0,1,0,.07,0h-0.07Z"/><path class="cls-4" d="M960.49,573.16a2.78,2.78,0,0,1-1.07-5.34c43.46-18.14,87.75-129.84,93.66-145.18l-29-26.73c-12.49,10.88-84,74.06-102,111a2.78,2.78,0,0,1-5-2.44c20.16-41.32,101.77-111.4,105.23-114.37a2.78,2.78,0,0,1,3.69.07l32.24,29.68a2.78,2.78,0,0,1,.72,3c-2,5.29-48.73,129.8-97.39,150.11A2.77,2.77,0,0,1,960.49,573.16Z"/><path class="cls-5" d="M955.54,569.1a36.91,36.91,0,0,1-2.91,3.56c-0.73.12-1.46,0.21-2.18,0.27-25.22,2-35.59-10.22-38.11-25.65A36.24,36.24,0,0,1,916,540.8c9.6-13.39,26.22-17.9,37.11-10.09S965.13,555.72,955.54,569.1Z"/><path class="cls-3" d="M1388.65,536.31V667a7.24,7.24,0,0,1-7.23,7.24h-104.2A7.24,7.24,0,0,1,1270,667V536.31a7.23,7.23,0,0,1,7.23-7.23h104.2A7.23,7.23,0,0,1,1388.65,536.31Z"/><path class="cls-4" d="M1381.42,677h-104.2a10,10,0,0,1-10-10V536.31a10,10,0,0,1,10-10h104.2a10,10,0,0,1,10,10V667A10,10,0,0,1,1381.42,677Zm-104.2-145.14a4.46,4.46,0,0,0-4.45,4.45V667a4.46,4.46,0,0,0,4.45,4.46h104.2a4.46,4.46,0,0,0,4.45-4.46V536.31a4.46,4.46,0,0,0-4.45-4.45h-104.2Z"/><path class="cls-3" d="M1375.19,545h-82.05a7.24,7.24,0,0,0-7.24,7.24V682.9a7.24,7.24,0,0,0,7.24,7.24h104.19a7.24,7.24,0,0,0,7.24-7.24V574.38Z"/><path class="cls-4" d="M1397.34,692.92h-104.2a10,10,0,0,1-10-10V552.24a10,10,0,0,1,10-10h82.05a2.78,2.78,0,0,1,2,.81l29.38,29.38a2.78,2.78,0,0,1,.81,2V682.9A10,10,0,0,1,1397.34,692.92Zm-104.2-145.14a4.46,4.46,0,0,0-4.46,4.46V682.9a4.46,4.46,0,0,0,4.46,4.46h104.2a4.46,4.46,0,0,0,4.46-4.46V575.53L1374,547.78h-80.9Z"/><rect class="cls-3" x="1306.74" y="594.82" width="77" height="10.32" rx="5.16" ry="5.16"/><path class="cls-4" d="M1378.58,607.92H1311.9a7.94,7.94,0,0,1,0-15.87h66.68A7.94,7.94,0,0,1,1378.58,607.92ZM1311.9,597.6a2.38,2.38,0,1,0,0,4.77h66.68a2.38,2.38,0,1,0,0-4.77H1311.9Z"/><rect class="cls-3" x="1306.74" y="621.34" width="77" height="10.32" rx="5.16" ry="5.16"/><path class="cls-4" d="M1378.58,634.43H1311.9a7.94,7.94,0,0,1,0-15.87h66.68A7.94,7.94,0,0,1,1378.58,634.43Zm-66.68-10.32a2.38,2.38,0,1,0,0,4.77h66.68a2.38,2.38,0,1,0,0-4.77H1311.9Z"/><rect class="cls-3" x="1306.74" y="647.85" width="77" height="10.32" rx="5.16" ry="5.16"/><path class="cls-4" d="M1378.58,660.95H1311.9a7.94,7.94,0,0,1,0-15.87h66.68A7.94,7.94,0,0,1,1378.58,660.95Zm-66.68-10.32a2.38,2.38,0,1,0,0,4.77h66.68a2.38,2.38,0,1,0,0-4.77H1311.9Z"/><path class="cls-3" d="M1375.19,567.15a7.24,7.24,0,0,0,7.24,7.24h22.14L1375.19,545v22.14Z"/><path class="cls-4" d="M1404.57,577.16h-22.14a10,10,0,0,1-10-10V545a2.78,2.78,0,0,1,4.74-2l29.38,29.38A2.78,2.78,0,0,1,1404.57,577.16ZM1378,551.71v15.44a4.46,4.46,0,0,0,4.46,4.46h15.44Z"/><path class="cls-1" d="M1415.75,491.82a2.33,2.33,0,0,1-1.51-.55,133.75,133.75,0,0,0-27.8-18.36,2.34,2.34,0,0,1,1.92-4.27,136.28,136.28,0,0,1,28.9,19.06A2.34,2.34,0,0,1,1415.75,491.82Z"/><path class="cls-1" d="M1423.22,503.69a2,2,0,0,1-1.72-1l-4.77-7.74a2,2,0,1,1,3.43-2.12l4.77,7.74A2,2,0,0,1,1423.22,503.69Z"/><path class="cls-1" d="M1416.58,505.49a2,2,0,0,1-2-1.83l-0.91-9.66a2,2,0,1,1,4-.38l0.91,9.66a2,2,0,0,1-1.82,2.19h-0.19Z"/><path class="cls-1" d="M1427.8,498.58a2,2,0,0,1-1.07-.31l-8.22-5.15a2,2,0,1,1,2.14-3.41l8.22,5.15A2,2,0,0,1,1427.8,498.58Z"/><circle class="cls-1" cx="1416.4" cy="491.15" r="3.8" transform="translate(-47.03 816.4) rotate(-31.65)"/><path class="cls-1" d="M1387.41,470.77v30.57s-28.63-6.67-53.64,17.79c-25-24.46-53.64-17.79-53.64-17.79V470.77l53.64,4.72Z"/><path class="cls-1" d="M1330.68,490.35l-83-26.76a2.38,2.38,0,0,1,0-4.53l83-26.76a10.05,10.05,0,0,1,6.17,0l83,26.76a2.38,2.38,0,0,1,0,4.53l-83,26.76A10.05,10.05,0,0,1,1330.68,490.35Z"/><path class="cls-3" d="M1333.77,492.83a12,12,0,0,1-3.7-.58L1285,477.71a2,2,0,1,1,1.23-3.81l45.09,14.54a8,8,0,0,0,4.94,0l45.82-14.77a2,2,0,1,1,1.23,3.81l-45.82,14.77A12,12,0,0,1,1333.77,492.83Z"/><path class="cls-1" d="M511.21,151.54a19.63,19.63,0,0,0,10.15-10.15l2.61-6,2.61,6a19.63,19.63,0,0,0,10.15,10.15l6,2.61-6,2.61a19.63,19.63,0,0,0-10.15,10.15l-2.61,6-2.61-6a19.63,19.63,0,0,0-10.15-10.15l-6-2.61Z"/><path class="cls-2" d="M1276.69,947.54a15,15,0,0,0,7.77-7.77l2-4.58,2,4.58a15,15,0,0,0,7.77,7.77l4.58,2-4.58,2a15,15,0,0,0-7.77,7.77l-2,4.58-2-4.58a15,15,0,0,0-7.77-7.77l-4.58-2Z"/><path class="cls-1" d="M1338.65,1030.69a23.75,23.75,0,0,0,12.29-12.29l3.16-7.25,3.16,7.25a23.75,23.75,0,0,0,12.29,12.29l7.25,3.16-7.25,3.16a23.75,23.75,0,0,0-12.29,12.29l-3.16,7.25-3.16-7.25a23.75,23.75,0,0,0-12.29-12.29l-7.25-3.16Z"/><path class="cls-2" d="M879.61,158.71a33.45,33.45,0,0,0,17.31-17.31l4.45-10.2,4.45,10.2a33.45,33.45,0,0,0,17.31,17.31l10.2,4.45-10.2,4.45a33.45,33.45,0,0,0-17.31,17.31l-4.45,10.2-4.45-10.2a33.45,33.45,0,0,0-17.31-17.31l-10.2-4.45Z"/><path class="cls-2" d="M1212.08,324.35a25.16,25.16,0,0,0,13-13l3.34-7.67,3.34,7.67a25.16,25.16,0,0,0,13,13l7.67,3.34L1244.8,331a25.16,25.16,0,0,0-13,13l-3.34,7.67-3.34-7.67a25.16,25.16,0,0,0-13-13l-7.67-3.34Z"/><circle class="cls-1" cx="832.86" cy="396.32" r="11.42"/><circle class="cls-1" cx="568.98" cy="984.44" r="11.42"/><path class="cls-3" d="M850.72,989.54L788.39,924a7.88,7.88,0,0,0-13.56,6l6.88,90.16a7.88,7.88,0,0,0,13.75,4.63l14-15.78,17.62,39.63a7.88,7.88,0,0,0,10.4,4h0a7.88,7.88,0,0,0,4-10.4l-17.62-39.63,21.1,0.17A7.88,7.88,0,0,0,850.72,989.54Z"/><path class="cls-4" d="M834.29,1056.16a10.67,10.67,0,0,1-9.75-6.33l-15.87-35.69-11.14,12.55a10.65,10.65,0,0,1-18.59-6.26l-6.88-90.16a10.65,10.65,0,0,1,18.34-8.15l62.33,65.5h0a10.65,10.65,0,0,1-7.71,18h-0.09l-16.78-.14L844,1041.18A10.65,10.65,0,0,1,834.29,1056.16Zm-24.83-49.86a2.84,2.84,0,0,1,.42,0,2.78,2.78,0,0,1,2.11,1.62l17.62,39.63a5.1,5.1,0,0,0,9.32-4.15l-17.62-39.63a2.78,2.78,0,0,1,2.54-3.9h0l21.1,0.17h0a5.1,5.1,0,0,0,3.69-8.62L786.38,926a5.1,5.1,0,0,0-8.78,3.9l6.88,90.16a5.1,5.1,0,0,0,8.9,3l14-15.78A2.78,2.78,0,0,1,809.46,1006.3Z"/><path class="cls-4" d="M1263.91,805.32h0a117,117,0,0,1-12-.69,2.5,2.5,0,0,1,.54-5,112,112,0,0,0,11.45.66A2.5,2.5,0,0,1,1263.91,805.32Zm11.67-.66a2.5,2.5,0,0,1-.3-5,76.24,76.24,0,0,0,11.1-2.18,2.5,2.5,0,0,1,1.34,4.82,81.12,81.12,0,0,1-11.83,2.33Zm-35-1.76a2.54,2.54,0,0,1-.43,0c-3.86-.68-7.71-1.23-11.45-1.64a2.5,2.5,0,0,1,.55-5c3.84,0.42,7.8,1,11.76,1.68A2.5,2.5,0,0,1,1240.62,802.89Zm-35-2.49a2.5,2.5,0,0,1-.11-5c3.89-.18,7.93-0.19,11.93,0a2.5,2.5,0,0,1,2.41,2.59,2.53,2.53,0,0,1-2.59,2.41c-3.86-.14-7.77-0.13-11.52,0h-0.12Zm92.42-2.06a2.5,2.5,0,0,1-1.07-4.76,62.67,62.67,0,0,0,9.69-5.69,2.5,2.5,0,0,1,2.91,4.07,67.68,67.68,0,0,1-10.47,6.15A2.49,2.49,0,0,1,1298,798.35ZM1317,784.8a2.5,2.5,0,0,1-1.79-4.25,72.62,72.62,0,0,0,7.25-8.7,2.5,2.5,0,1,1,4.07,2.9,77.38,77.38,0,0,1-7.75,9.3A2.49,2.49,0,0,1,1317,784.8Zm13.61-19a2.5,2.5,0,0,1-2.21-3.66,102.89,102.89,0,0,0,4.74-10.42,2.5,2.5,0,0,1,4.66,1.82,108,108,0,0,1-5,10.93A2.5,2.5,0,0,1,1330.57,765.81Zm8.59-21.8a2.47,2.47,0,0,1-.69-0.1,2.5,2.5,0,0,1-1.72-3.09c1-3.59,1.94-7.36,2.72-11.22a2.5,2.5,0,0,1,4.9,1c-0.8,4-1.75,7.89-2.81,11.6A2.5,2.5,0,0,1,1339.16,744Zm4.68-23-0.33,0a2.5,2.5,0,0,1-2.16-2.8c0.49-3.78.87-7.66,1.12-11.54a2.5,2.5,0,1,1,5,.33c-0.26,4-.65,8-1.15,11.86A2.5,2.5,0,0,1,1343.84,721Zm1.51-23.45a2.5,2.5,0,0,1-2.5-2.49c0-3-.11-4.77-0.11-4.78a2.5,2.5,0,0,1,5-.3c0,0.08.11,1.9,0.12,5.07a2.5,2.5,0,0,1-2.49,2.51h0Z"/><path class="cls-4" d="M974.06,1146.46c-3,0-6-.09-9-0.27a2.5,2.5,0,1,1,.3-5c2.88,0.17,5.82.26,8.73,0.26,0.82,0,1.7,0,2.55,0h0.28a2.5,2.5,0,0,1,.06,5h-0.27C975.81,1146.45,974.91,1146.46,974.06,1146.46Zm14.52-.74a2.5,2.5,0,0,1-.26-5c3.84-.41,7.66-1,11.34-1.74a2.5,2.5,0,1,1,1,4.9c-3.83.78-7.8,1.39-11.8,1.81h-0.27Zm-35-.71-0.36,0c-3.93-.56-7.87-1.3-11.72-2.2a2.5,2.5,0,1,1,1.13-4.87c3.71,0.86,7.51,1.57,11.3,2.12A2.5,2.5,0,0,1,953.53,1145Zm58-4a2.5,2.5,0,0,1-.74-4.89,107.46,107.46,0,0,0,10.72-4,2.5,2.5,0,1,1,2,4.59,112.51,112.51,0,0,1-11.22,4.17A2.51,2.51,0,0,1,1011.48,1141Zm-80.75-1.32a2.5,2.5,0,0,1-.77-0.12c-3.76-1.23-7.52-2.63-11.17-4.17a2.5,2.5,0,0,1,1.95-4.61c3.52,1.49,7.14,2.84,10.77,4A2.5,2.5,0,0,1,930.73,1139.71Zm102.2-8a2.5,2.5,0,0,1-1.24-4.67,106,106,0,0,0,9.61-6.2,2.5,2.5,0,1,1,2.93,4.05,111.26,111.26,0,0,1-10.07,6.49A2.49,2.49,0,0,1,1032.93,1131.71Zm-123.77-1.12a2.49,2.49,0,0,1-1.16-.29c-3.48-1.83-6.95-3.84-10.32-6a2.5,2.5,0,0,1,2.68-4.22c3.26,2.07,6.61,4,10,5.78A2.5,2.5,0,0,1,909.17,1130.59ZM889.37,1118a2.49,2.49,0,0,1-1.5-.5c-3.14-2.35-6.26-4.87-9.27-7.49a2.5,2.5,0,1,1,3.28-3.77c2.92,2.54,5.94,5,9,7.26A2.5,2.5,0,0,1,889.37,1118Zm162.51,0a2.5,2.5,0,0,1-1.67-4.36c2.8-2.52,5.54-5.23,8.14-8.08a2.5,2.5,0,1,1,3.69,3.37c-2.71,3-5.57,5.8-8.49,8.43A2.49,2.49,0,0,1,1051.89,1118Zm-180.22-15.33a2.49,2.49,0,0,1-1.77-.73c-2.77-2.77-5.51-5.69-8.14-8.68a2.5,2.5,0,1,1,3.76-3.3c2.56,2.91,5.22,5.75,7.91,8.44A2.5,2.5,0,0,1,871.67,1102.68Zm196-1.93a2.5,2.5,0,0,1-2-4c2.27-3,4.47-6.19,6.53-9.47a2.5,2.5,0,0,1,4.23,2.66c-2.13,3.39-4.41,6.7-6.77,9.82A2.5,2.5,0,0,1,1067.68,1100.74Zm-211.5-15.69a2.5,2.5,0,0,1-2-1c-2.42-3.13-4.77-6.37-7-9.64a2.5,2.5,0,0,1,4.14-2.8c2.15,3.18,4.44,6.33,6.8,9.38A2.5,2.5,0,0,1,856.18,1085.05Zm224-4.12a2.5,2.5,0,0,1-2.21-3.66c1.75-3.35,3.42-6.85,5-10.42a2.5,2.5,0,1,1,4.59,2c-1.6,3.68-3.32,7.29-5.13,10.75A2.5,2.5,0,0,1,1080.17,1080.93ZM843,1065.61a2.5,2.5,0,0,1-2.16-1.23,120.3,120.3,0,0,1-5.67-10.65,2.5,2.5,0,0,1,4.56-2s1.8,4,5.41,10.16A2.5,2.5,0,0,1,843,1065.61Zm246.49-6.16a2.5,2.5,0,0,1-2.36-3.34c1.28-3.59,2.46-7.29,3.53-11a2.5,2.5,0,0,1,4.81,1.38c-1.09,3.82-2.31,7.63-3.62,11.31A2.5,2.5,0,0,1,1089.51,1059.45Zm6.46-22.53a2.56,2.56,0,0,1-.55-0.06,2.5,2.5,0,0,1-1.9-3c0.83-3.72,1.57-7.55,2.2-11.38a2.5,2.5,0,0,1,4.93.81c-0.64,3.92-1.4,7.84-2.25,11.65A2.5,2.5,0,0,1,1096,1036.92Zm3.81-23.14h-0.27a2.5,2.5,0,0,1-2.22-2.75c0.42-3.83.73-7.72,0.94-11.56a2.5,2.5,0,1,1,5,.27c-0.21,3.93-.54,7.91-1,11.83A2.5,2.5,0,0,1,1099.78,1013.78Zm1.28-23.42a2.5,2.5,0,0,1-2.5-2.5v-0.27c0-3.78-.1-7.58-0.3-11.32a2.5,2.5,0,1,1,5-.26c0.2,3.82.3,7.72,0.3,11.58v0.27A2.5,2.5,0,0,1,1101.06,990.36Zm-1.23-23.41a2.5,2.5,0,0,1-2.49-2.27c-0.37-3.94-.66-7.91-0.86-11.8a2.5,2.5,0,0,1,5-.26c0.19,3.82.48,7.72,0.84,11.59a2.5,2.5,0,0,1-2.25,2.72h-0.24Zm-1.19-23.42a2.5,2.5,0,0,1-2.5-2.48q0-.85,0-1.69c0-3.4.07-6.81,0.21-10.15a2.5,2.5,0,0,1,2.5-2.4h0.1a2.5,2.5,0,0,1,2.4,2.6c-0.13,3.27-.2,6.62-0.2,10,0,0.55,0,1.11,0,1.66a2.5,2.5,0,0,1-2.48,2.52h0Zm1-23.43h-0.23a2.5,2.5,0,0,1-2.26-2.72c0.36-4,.84-7.94,1.4-11.78a2.5,2.5,0,0,1,4.95.73c-0.55,3.75-1,7.62-1.37,11.51A2.5,2.5,0,0,1,1099.61,920.1Z"/><path class="cls-4" d="M356.84,1070.29a43.39,43.39,0,1,1,16.53-3.29h0A43.19,43.19,0,0,1,356.84,1070.29Zm-0.11-81.23a37.84,37.84,0,1,0,14.51,72.81h0A37.84,37.84,0,0,0,356.73,989.05Zm15.57,75.37h0Z"/><path class="cls-4" d="M369.91,1067.67c-4.28,0-9.22-2.79-14.27-8.15-5.86-6.21-11.44-15.32-15.71-25.65-8-19.44-10.68-42.54.27-47.07,5-2.05,11.26.6,17.74,7.47,5.86,6.21,11.44,15.32,15.71,25.65,8,19.44,10.68,42.54-.27,47.07h0A9,9,0,0,1,369.91,1067.67Zm-26.19-76a3.63,3.63,0,0,0-1.4.26c-5.54,2.29-5.54,19.81,2.74,39.82,4,9.72,9.21,18.23,14.62,24,4.65,4.93,9,7.23,11.57,6.15h0c5.54-2.29,5.54-19.8-2.74-39.82-4-9.72-9.21-18.23-14.62-24C350,993.95,346.33,991.66,343.71,991.66Z"/><path class="cls-4" d="M319.28,1045.18a2.78,2.78,0,0,1-1.06-5.34l75-31a2.78,2.78,0,0,1,2.12,5.13l-75,31A2.77,2.77,0,0,1,319.28,1045.18Z"/><circle class="cls-1" cx="1163.29" cy="147.91" r="15.25"/><circle class="cls-1" cx="1232.4" cy="147.91" r="15.25"/><circle class="cls-1" cx="1301.51" cy="147.91" r="15.25"/><path class="cls-4" d="M1307.32,1280.53H320.39a2.78,2.78,0,1,1,0-5.55h986.93A2.78,2.78,0,1,1,1307.32,1280.53Z"/><path class="cls-4" d="M1027.26,1318.77H600.45a2.78,2.78,0,1,1,0-5.55h426.81A2.78,2.78,0,0,1,1027.26,1318.77Z"/><path class="cls-4" d="M551.76,1318.77H455.88a2.78,2.78,0,1,1,0-5.55h95.88A2.78,2.78,0,1,1,551.76,1318.77Z"/><path class="cls-4" d="M1181.29,1318.77h-63.76a2.78,2.78,0,0,1,0-5.55h63.76A2.78,2.78,0,0,1,1181.29,1318.77Z"/></svg>